<?xml version="1.0" encoding="utf-8"?>
<!-- Generator: Adobe Illustrator 22.0.1, SVG Export Plug-In . SVG Version: 6.00 Build 0)  -->
<svg version="1.1" id="Layer_1" xmlns="http://www.w3.org/2000/svg" xmlns:xlink="http://www.w3.org/1999/xlink" x="0px" y="0px"
	 viewBox="0 0 924.9 303.4" style="enable-background:new 0 0 924.9 303.4;" xml:space="preserve">
<g>
	<g>
		<path d="M479.8,36.7c13.6,15.6,26.3,30.3,39.5,45.6c12.8-15,25.4-29.7,38.9-45.3c0,28,0,54.8,0,81.9c-3.6,0-7.1,0-11.2,0
			c0-16.7,0-33.3,0-49.8c-0.4-0.2-0.8-0.4-1.2-0.6c-8.8,10.4-17.6,20.8-26.7,31.7c-9-10.8-17.7-21.1-27.4-32.7c0,18.1,0,34.6,0,51.4
			c-4.2,0-7.8,0-11.8,0C479.8,91.9,479.8,65,479.8,36.7z"/>
		<path d="M373.5,38c12.1,0.8,24.2,0.2,35.8,2.6c19.9,4.1,31.3,22.7,28.6,43.6c-2.8,21-17.7,34.4-38.9,34.8c-8.3,0.2-16.6,0-25.4,0
			C373.5,92.3,373.5,65.8,373.5,38z M386.2,107.2c14.4,2.7,27.7-1.4,33.7-10.1c6.4-9.4,6.7-26.2,0.2-35.6
			c-8.3-12.1-21-11.5-33.9-11.2C386.2,69.5,386.2,88.3,386.2,107.2z"/>
		<path d="M593.9,239.2c5.3,7.5,10.3,14.5,15.3,21.6c-8.6,3.1-14.2,1.4-19.1-5.6c-0.9-1.2-2-2.3-2.5-3.7
			c-3.8-9.1-10.8-10.5-20.1-8.1c0,5.7,0,11.8,0,18.1c-4.5,0-8.4,0-12.7,0c-0.1-1.8-0.3-3.4-0.3-5c0-23.3,0.1-46.6-0.1-70
			c0-4.1,1.1-5.6,5.3-5.3c8.8,0.6,17.7,0,26.4,1.4c12.3,2,20.3,9.7,22.8,22.1c2.9,14.3-1.8,25.7-13.1,33
			C595.3,238.1,594.8,238.5,593.9,239.2z M567.5,231.7c10-0.2,19.9,1.2,26.2-8.3c4.2-6.3,3.7-18.2-0.9-23.7
			c-6.8-8.3-16.1-6.9-25.3-6.5C567.5,206,567.5,218.5,567.5,231.7z"/>
		<path d="M721.1,118.8c-4.6,0-8.5,0-12.7,0c0-26.7,0-53,0-80.7c11.3,0.8,22.5,0.5,33.3,2.6c12.3,2.4,19.4,11.1,21,23.7
			c1.6,12.6-1.5,23.5-13,30.6c-0.6,0.4-1.1,0.7-1.6,1.1c-0.1,0.1-0.2,0.3-0.6,0.8c5,7,10.1,14.1,15.8,22.2c-5.3,0-9.5,0.2-13.7-0.1
			c-1.2-0.1-2.5-1.5-3.3-2.6c-2.9-3.9-5.8-7.7-8.3-11.9c-2.1-3.6-4.7-5.2-8.9-4.5c-2.4,0.4-4.9,0.1-8.1,0.1
			C721.1,106.5,721.1,112.5,721.1,118.8z M721.3,88.9c10.2,0,20.7,1.6,26.3-8.8c4-7.4,4-15.8-1.1-22.7c-6.3-8.6-15.9-7.3-25.2-7.2
			C721.3,63.3,721.3,75.8,721.3,88.9z"/>
		<path d="M225.9,261.7c-4.2,0-7.8,0-12.1,0c0-8,0-15.9,0-24.2c-13,0-25.4,0-38.4,0c0,7.9,0,15.8,0,24c-4.5,0-8.4,0-12.7,0
			c0-26.5,0-52.9,0-79.8c4,0,8,0,12.5,0c0,14.6,0,29,0,43.8c12.9,0,25.2,0,38.4,0c0-4.7,0-9.3,0-13.9c0-8.7,0.1-17.3-0.1-26
			c-0.1-3.1,0.7-4.7,4.2-4.4c2.6,0.2,5.3,0,8.3,0C225.9,208.2,225.9,234.7,225.9,261.7z"/>
		<path d="M275.3,68.2c0,16.7,0,33.5,0,50.6c-4,0-7.6,0-11.6,0c0-26.8,0-53.6,0-81.9c17.6,18.4,34.3,35.9,52,54.4
			c0-18.2,0-34.9,0-52.1c4,0,7.5,0,11.4,0c0,26.7,0,53.5,0,81.6c-17.3-18.1-34-35.6-50.7-53C276.1,67.9,275.7,68.1,275.3,68.2z"/>
		<path d="M284.7,236.8c-1.3,13.6-1.3,13.6,10.8,13.6c9.5,0,18.9,0,28.7,0c0,4,0,7.4,0,11.1c-17.5,0-34.7,0-52.4,0
			c-0.1-1.5-0.3-3-0.3-4.4c0-23.6,0.1-47.3-0.1-70.9c0-4,1.2-5.1,5.1-5c13.8,0.2,27.6,0.1,41.5,0.1c1.5,0,2.9,0.2,4.7,0.3
			c0,3.7,0,7.1,0,11.2c-12.7,0-25.3,0-38.1,0c0,11.2,0,21.8,0,33c11.2,0,22.3,0,33.6,0c0,3.9,0,7.1,0,11
			C307.1,236.8,296,236.8,284.7,236.8z"/>
		<path d="M863.5,39.1c-6.4,8.2-12.4,15.7-18.3,23.2c-3.2,4.2-8.5,8.5-8.6,12.8c-0.1,4.1,5.2,8.4,8.3,12.6c6.6,9,13.3,18,19.9,27
			c0.8,1.1,1.6,2.4,2.8,4.3c-5.1,0-9.4,0.3-13.6-0.2c-1.4-0.1-3-1.8-4-3.2c-7.6-10.1-15.1-20.3-22.5-30.5
			c-13.4,8.2-8.2,21.5-9.5,33.4c-4.1,0-8.1,0-12.3,0c0-26.5,0-52.9,0-79.6c4.2,0,8.1,0,12.5,0c0,12.7,0,25.1,0,39.1
			c2.2-2.6,3.4-4,4.6-5.5c7.1-9,14.9-17.6,21.1-27.3C848.8,37.5,855.3,38.4,863.5,39.1z"/>
		<path d="M652.4,261.4c0-26.8,0-53.2,0-79.9c16.9,0,33.5,0,50.5,0c0,3.6,0,7,0,11c-12.4,0-25,0-37.8,0c0,11.4,0,22.1,0,33.3
			c11.3,0,22.2,0,33.4,0c0,3.7,0,7,0,10.7c-11.1,0-22,0-33.4,0c0,4.7,0,8.9,0,13.7c13.1,0,26,0,39.3,0c0,3.9,0,7.3,0,11.1
			C687.2,261.4,670,261.4,652.4,261.4z"/>
		<path d="M432.2,261.6c-2.1,0.1-3.5,0-4.7,0.3c-6.4,1.2-10.5-1-11.8-7.7c-0.6-3-2.6-3.7-5.5-3.7c-9.3,0.1-18.7-0.1-28,0.2
			c-1.7,0-4.2,1.4-4.9,2.8c-4.6,8.8-4.5,8.9-16.3,8c11.7-27.4,23.3-54.4,35.5-82.9C408.7,207,420.4,234.1,432.2,261.6z M396.4,207.7
			c-4.7,11.1-8.8,20.9-13,31c9,0,17.1,0,25.9,0C405,228.4,401,218.7,396.4,207.7z"/>
		<path d="M153.1,118.7c11.8-27.4,23.4-54.4,35.4-82.5c12.1,28,23.7,54.9,35.7,82.8c-4.6,0-8.7,0.5-12.5-0.3
			c-1.4-0.3-2.6-3.5-3.3-5.6c-1.2-4-3.4-5.3-7.6-5.1c-8.8,0.4-17.7,0-26.5,0.2c-1.7,0.1-4.2,1.3-4.9,2.7
			C164.7,119.7,164.9,119.8,153.1,118.7z M175.3,96.4c9.1,0,17.3,0,26.1,0c-4.3-10.4-8.4-20.2-13-31.2
			C183.8,76.2,179.7,86.1,175.3,96.4z"/>
		<path d="M633.4,36.1c12.2,28.3,23.8,55.2,35.7,82.9c-4.4,0-8.1,0.4-11.6-0.2c-1.5-0.3-3.2-2.7-3.7-4.4c-1.4-5.2-4.3-6.9-9.7-6.6
			c-8.5,0.5-17,0-25.5,0.3c-1.6,0.1-3.9,1.6-4.6,3.1c-4.4,9-4.7,9.2-16,7.2C609.7,91.3,621.3,64.4,633.4,36.1z M620.1,96.5
			c9,0,17.2,0,26.2,0c-4.3-10.4-8.4-20.2-12.9-31.3C628.7,76.2,624.5,86,620.1,96.5z"/>
		<path d="M791.7,192.8c-3.5,2.3-6.4,4.2-9.6,6.3c-3.7-5.2-8.3-8.3-14.8-7.5c-4,0.5-7,2.2-8.2,6.2c-1.2,4-0.5,7.9,3,10.3
			c3.4,2.4,7.2,4.1,10.9,6c4.8,2.6,10,4.6,14.5,7.7c8.4,5.6,10.9,13.9,9,23.6c-1.8,8.9-8.4,14.8-17.9,16.5c-16.5,3-30-2.8-37-16.2
			c3.3-1.7,6.6-3.4,10.2-5.3c4.9,8.1,12,11.6,21.1,10.6c6-0.6,10.3-3.9,11.2-8.4c0.9-4.9-1.3-9.3-6.7-12.2c-6-3.2-12.4-5.7-18.4-9
			c-10.5-5.8-15-15.5-12.2-25.8c4.3-16.1,27.2-21.2,40-8.8C788.4,188.6,789.8,190.5,791.7,192.8z"/>
		<path d="M99.2,261.6c-4.8,0-8.5,0-12.8,0c0-22.8,0-45.4,0-68.5c-8,0-15.5,0-22.9,0c-0.5-1-0.8-1.4-0.9-1.9
			c-0.9-9.9-0.9-9.9,8.9-9.9c15.1,0,30.3,0,45.4,0c1.8,0,3.6,0,5.7,0c0,4,0,7.4,0,11.4c-7.7,0-15.2,0-23.4,0
			C99.2,215.9,99.2,238.6,99.2,261.6z"/>
		<path d="M478.9,192.8c-8.3,0-15.8,0-23.6,0c0-3.9,0-7.4,0-11.2c20,0,39.7,0,59.7,0c0,3.7,0,7.1,0,11.1c-7.7,0-15.3,0-23.4,0
			c0,23.1,0,45.7,0,68.7c-4.4,0-8.2,0-12.7,0C478.9,238.7,478.9,216.1,478.9,192.8z"/>
		<path d="M70.8,39c4.1,0,7.9,0,12.2,0c0,22.8,0,45.4,0,68.7c12,0,23.5,0,35.3,0c0,4,0,7.3,0,11c-15.7,0-31.4,0-47.5,0
			C70.8,92.3,70.8,65.9,70.8,39z"/>
	</g>
</g>
</svg>
